<svg width="128" height="128" viewBox="0 0 16 16" fill="none" xmlns="http://www.w3.org/2000/svg">
<g clip-path="url(#clip0_fav128)">
<rect width="16" height="16" fill="#0B0B0F"/>
<path d="M10.4739 11.8461C9.97435 11.8461 9.53358 11.7175 9.15157 11.4604C8.76957 11.2033 8.47205 10.858 8.25901 10.4246C8.04597 9.98381 7.93945 9.48794 7.93945 8.93698C7.93945 8.36397 8.06434 7.85341 8.31411 7.4053C8.56388 6.94983 8.9165 6.58987 9.37196 6.32541C9.83477 6.06094 10.3784 5.92871 11.0028 5.92871C11.6346 5.92871 12.1709 6.06094 12.6116 6.32541C13.0597 6.58252 13.4013 6.93881 13.6364 7.39428C13.8788 7.84239 14.0001 8.34561 14.0001 8.90392V11.7138H12.3251V10.8103H12.2811C12.1782 11.0086 12.046 11.1886 11.8844 11.3502C11.7227 11.5045 11.5244 11.6257 11.2893 11.7138C11.0616 11.802 10.7898 11.8461 10.4739 11.8461ZM10.9808 10.3695C11.2379 10.3695 11.462 10.307 11.653 10.1822C11.8513 10.0499 12.0019 9.86994 12.1047 9.64221C12.2076 9.41448 12.259 9.16104 12.259 8.88188C12.259 8.61007 12.2076 8.36397 12.1047 8.14359C12.0019 7.9232 11.8513 7.75057 11.653 7.62568C11.462 7.49345 11.2379 7.42733 10.9808 7.42733C10.7163 7.42733 10.4849 7.49345 10.2866 7.62568C10.0882 7.75057 9.93762 7.9232 9.83477 8.14359C9.73192 8.36397 9.6805 8.61007 9.6805 8.88188C9.6805 9.16104 9.73192 9.41448 9.83477 9.64221C9.93762 9.86994 10.0882 10.0499 10.2866 10.1822C10.4849 10.307 10.7163 10.3695 10.9808 10.3695Z" fill="#FF4F9A"/>
<path d="M2 11.7135V4H5.3168C5.83104 4 6.30119 4.11754 6.72727 4.35262C7.1607 4.5877 7.50597 4.9146 7.76309 5.33333C8.0202 5.74472 8.14876 6.22222 8.14876 6.76584C8.14876 7.30946 8.0202 7.79431 7.76309 8.22039C7.50597 8.63912 7.16437 8.96603 6.73829 9.2011C6.31221 9.43618 5.83838 9.55372 5.3168 9.55372H3.85124V11.7135H2ZM3.85124 8H5.10744C5.32782 8 5.52617 7.95225 5.70248 7.85675C5.87879 7.76125 6.02204 7.62167 6.13223 7.43802C6.24242 7.25436 6.29752 7.03398 6.29752 6.77686C6.29752 6.51974 6.24242 6.29936 6.13223 6.1157C6.02204 5.93205 5.87512 5.79247 5.69146 5.69697C5.51515 5.59412 5.32048 5.5427 5.10744 5.5427H3.85124V8Z" fill="#FF4F9A"/>
</g>
<defs>
<clipPath id="clip0_fav128">
<rect width="16" height="16" fill="white"/>
</clipPath>
</defs>
</svg>
