<svg width="32" height="32" viewBox="0 0 32 32" fill="none" xmlns="http://www.w3.org/2000/svg">
<g clip-path="url(#clip0_319_34733)">
<rect width="32" height="32" fill="#0B0B0F"/>
<path d="M20.9478 23.6912C19.9487 23.6912 19.0672 23.434 18.3031 22.9198C17.5391 22.4056 16.9441 21.715 16.518 20.8482C16.0919 19.9666 15.8789 18.9749 15.8789 17.873C15.8789 16.727 16.1287 15.7058 16.6282 14.8096C17.1278 13.8987 17.833 13.1788 18.7439 12.6498C19.6695 12.1209 20.7568 11.8564 22.0056 11.8564C23.2692 11.8564 24.3417 12.1209 25.2233 12.6498C26.1195 13.1641 26.8027 13.8766 27.2728 14.7876C27.7577 15.6838 28.0001 16.6902 28.0001 17.8069V23.4267H24.6503V21.6195H24.5621C24.3564 22.0162 24.0919 22.3762 23.7687 22.6994C23.4455 23.008 23.0488 23.2504 22.5786 23.4267C22.1232 23.603 21.5796 23.6912 20.9478 23.6912ZM21.9616 20.738C22.4758 20.738 22.9239 20.6131 23.3059 20.3633C23.7026 20.0989 24.0038 19.7389 24.2095 19.2834C24.4152 18.828 24.518 18.3211 24.518 17.7628C24.518 17.2192 24.4152 16.727 24.2095 16.2862C24.0038 15.8454 23.7026 15.5002 23.3059 15.2504C22.9239 14.9859 22.4758 14.8537 21.9616 14.8537C21.4326 14.8537 20.9698 14.9859 20.5731 15.2504C20.1764 15.5002 19.8752 15.8454 19.6695 16.2862C19.4638 16.727 19.361 17.2192 19.361 17.7628C19.361 18.3211 19.4638 18.828 19.6695 19.2834C19.8752 19.7389 20.1764 20.0989 20.5731 20.3633C20.9698 20.6131 21.4326 20.738 21.9616 20.738Z" fill="#FF4F9A"/>
<path d="M4 23.427V8H10.6336C11.6621 8 12.6024 8.23508 13.4545 8.70523C14.3214 9.17539 15.0119 9.8292 15.5262 10.6667C16.0404 11.4894 16.2975 12.4444 16.2975 13.5317C16.2975 14.6189 16.0404 15.5886 15.5262 16.4408C15.0119 17.2782 14.3287 17.9321 13.4766 18.4022C12.6244 18.8724 11.6768 19.1074 10.6336 19.1074H7.70248V23.427H4ZM7.70248 16H10.2149C10.6556 16 11.0523 15.9045 11.405 15.7135C11.7576 15.5225 12.0441 15.2433 12.2645 14.876C12.4848 14.5087 12.595 14.068 12.595 13.5537C12.595 13.0395 12.4848 12.5987 12.2645 12.2314C12.0441 11.8641 11.7502 11.5849 11.3829 11.3939C11.0303 11.1882 10.641 11.0854 10.2149 11.0854H7.70248V16Z" fill="#FF4F9A"/>
</g>
<defs>
<clipPath id="clip0_319_34733">
<rect width="32" height="32" fill="white"/>
</clipPath>
</defs>
</svg>
