<svg width="192" height="192" viewBox="0 0 192 192" fill="none" xmlns="http://www.w3.org/2000/svg">
<g clip-path="url(#clip0_319_34748)">
<rect width="192" height="192" fill="#0B0B0F"/>
<path d="M128.984 147.38C122.323 147.38 116.446 145.665 111.353 142.237C106.26 138.809 102.293 134.205 99.4522 128.426C96.6117 122.549 95.1914 115.938 95.1914 108.592C95.1914 100.952 96.8565 94.1441 100.187 88.1692C103.517 82.0964 108.219 77.2969 114.291 73.7707C120.462 70.2445 127.711 68.4814 136.036 68.4814C144.46 68.4814 151.61 70.2445 157.487 73.7707C163.462 77.1989 168.017 81.9495 171.151 88.0223C174.383 93.9972 175.999 100.707 175.999 108.151V145.616H153.667V133.569H153.079C151.708 136.213 149.945 138.613 147.79 140.768C145.635 142.825 142.991 144.441 139.856 145.616C136.82 146.792 133.196 147.38 128.984 147.38ZM135.742 127.692C139.171 127.692 142.158 126.859 144.705 125.194C147.349 123.431 149.357 121.031 150.729 117.995C152.1 114.958 152.786 111.579 152.786 107.857C152.786 104.233 152.1 100.952 150.729 98.0131C149.357 95.0747 147.349 92.7729 144.705 91.1077C142.158 89.3446 139.171 88.4631 135.742 88.4631C132.216 88.4631 129.131 89.3446 126.486 91.1077C123.842 92.7729 121.834 95.0747 120.462 98.0131C119.091 100.952 118.405 104.233 118.405 107.857C118.405 111.579 119.091 114.958 120.462 117.995C121.834 121.031 123.842 123.431 126.486 125.194C129.131 126.859 132.216 127.692 135.742 127.692Z" fill="#FF4F9A"/>
<path d="M16 145.616V42.7695H60.2241C67.0805 42.7695 73.3493 44.3367 79.0303 47.4711C84.8093 50.6055 89.4129 54.9642 92.8411 60.5473C96.2694 66.0325 97.9835 72.3992 97.9835 79.6474C97.9835 86.8957 96.2694 93.3603 92.8411 99.0414C89.4129 104.624 84.8583 108.983 79.1772 112.118C73.4962 115.252 67.1785 116.819 60.2241 116.819H40.6832V145.616H16ZM40.6832 96.1029H57.4325C60.371 96.1029 63.0156 95.4662 65.3664 94.1929C67.7172 92.9195 69.6272 91.0585 71.0964 88.6098C72.5657 86.161 73.3003 83.2226 73.3003 79.7943C73.3003 76.3661 72.5657 73.4276 71.0964 70.9789C69.6272 68.5302 67.6682 66.6691 65.2195 65.3958C62.8687 64.0245 60.273 63.3389 57.4325 63.3389H40.6832V96.1029Z" fill="#FF4F9A"/>
</g>
<defs>
<clipPath id="clip0_319_34748">
<rect width="192" height="192" fill="white"/>
</clipPath>
</defs>
</svg>
