<svg width="48" height="48" viewBox="0 0 48 48" fill="none" xmlns="http://www.w3.org/2000/svg">
<g clip-path="url(#clip0_319_34738)">
<rect width="48" height="48" fill="#0B0B0F"/>
<path d="M32.246 36.8446C30.5808 36.8446 29.1116 36.4161 27.8383 35.5591C26.5649 34.702 25.5732 33.5511 24.863 32.1063C24.1529 30.6371 23.7979 28.9842 23.7979 27.1477C23.7979 25.2377 24.2141 23.5358 25.0467 22.0421C25.8793 20.5239 27.0547 19.324 28.5729 18.4424C30.1156 17.5609 31.9276 17.1201 34.0091 17.1201C36.115 17.1201 37.9025 17.5609 39.3718 18.4424C40.8655 19.2995 42.0042 20.4871 42.7878 22.0053C43.5958 23.4991 43.9999 25.1764 43.9999 27.0375V36.4039H38.4168V33.3919H38.2698C37.927 34.0531 37.4863 34.653 36.9475 35.1917C36.4088 35.706 35.7477 36.11 34.9641 36.4039C34.205 36.6977 33.2989 36.8446 32.246 36.8446ZM33.9356 31.9227C34.7927 31.9227 35.5395 31.7145 36.1762 31.2983C36.8373 30.8575 37.3393 30.2576 37.6821 29.4984C38.025 28.7393 38.1964 27.8945 38.1964 26.964C38.1964 26.058 38.025 25.2377 37.6821 24.503C37.3393 23.7684 36.8373 23.193 36.1762 22.7767C35.5395 22.3359 34.7927 22.1155 33.9356 22.1155C33.0541 22.1155 32.2827 22.3359 31.6215 22.7767C30.9604 23.193 30.4584 23.7684 30.1156 24.503C29.7728 25.2377 29.6013 26.058 29.6013 26.964C29.6013 27.8945 29.7728 28.7393 30.1156 29.4984C30.4584 30.2576 30.9604 30.8575 31.6215 31.2983C32.2827 31.7145 33.0541 31.9227 33.9356 31.9227Z" fill="#FF4F9A"/>
<path d="M4 36.4041V10.6924H15.056C16.7701 10.6924 18.3373 11.0842 19.7576 11.8678C21.2023 12.6514 22.3532 13.7411 23.2103 15.1368C24.0673 16.5081 24.4959 18.0998 24.4959 19.9119C24.4959 21.7239 24.0673 23.3401 23.2103 24.7603C22.3532 26.1561 21.2146 27.2458 19.7943 28.0294C18.374 28.813 16.7946 29.2048 15.056 29.2048H10.1708V36.4041H4ZM10.1708 24.0257H14.3581C15.0927 24.0257 15.7539 23.8666 16.3416 23.5482C16.9293 23.2299 17.4068 22.7646 17.7741 22.1524C18.1414 21.5403 18.3251 20.8056 18.3251 19.9486C18.3251 19.0915 18.1414 18.3569 17.7741 17.7447C17.4068 17.1325 16.9171 16.6673 16.3049 16.349C15.7172 16.0061 15.0683 15.8347 14.3581 15.8347H10.1708V24.0257Z" fill="#FF4F9A"/>
</g>
<defs>
<clipPath id="clip0_319_34738">
<rect width="48" height="48" fill="white"/>
</clipPath>
</defs>
</svg>
