<svg width="180" height="180" viewBox="0 0 180 180" fill="none" xmlns="http://www.w3.org/2000/svg">
<g clip-path="url(#clip0_319_34743)">
<rect width="180" height="180" fill="#0B0B0F"/>
<path d="M120.511 137.515C114.35 137.515 108.914 135.929 104.202 132.758C99.4911 129.587 95.8216 125.329 93.1942 119.983C90.5667 114.547 89.2529 108.431 89.2529 101.636C89.2529 94.5691 90.7932 88.2722 93.8737 82.7454C96.9542 77.128 101.303 72.6885 106.921 69.4267C112.629 66.165 119.333 64.5342 127.034 64.5342C134.826 64.5342 141.44 66.165 146.876 69.4267C152.403 72.5978 156.616 76.9921 159.516 82.6095C162.505 88.1363 164 94.3426 164 101.228V135.884H143.343V124.74H142.799C141.531 127.186 139.9 129.406 137.907 131.399C135.913 133.302 133.467 134.797 130.568 135.884C127.759 136.971 124.407 137.515 120.511 137.515ZM126.763 119.304C129.934 119.304 132.697 118.534 135.053 116.993C137.499 115.362 139.356 113.143 140.625 110.334C141.893 107.525 142.528 104.4 142.528 100.957C142.528 97.6043 141.893 94.5691 140.625 91.851C139.356 89.1329 137.499 87.0037 135.053 85.4635C132.697 83.8326 129.934 83.0172 126.763 83.0172C123.501 83.0172 120.647 83.8326 118.201 85.4635C115.754 87.0037 113.897 89.1329 112.629 91.851C111.36 94.5691 110.726 97.6043 110.726 100.957C110.726 104.4 111.36 107.525 112.629 110.334C113.897 113.143 115.754 115.362 118.201 116.993C120.647 118.534 123.501 119.304 126.763 119.304Z" fill="#FF4F9A"/>
<path d="M16 135.883V40.75H56.9073C63.2495 40.75 69.0481 42.1997 74.303 45.0989C79.6486 47.9982 83.907 52.0301 87.0781 57.1944C90.2492 62.2682 91.8347 68.1574 91.8347 74.862C91.8347 81.5667 90.2492 87.5465 87.0781 92.8014C83.907 97.9658 79.6939 101.998 74.4389 104.897C69.184 107.796 63.3401 109.246 56.9073 109.246H38.832V135.883H16ZM38.832 90.0834H54.3251C57.0432 90.0834 59.4894 89.4944 61.6639 88.3166C63.8384 87.1388 65.6051 85.4173 66.9642 83.1522C68.3232 80.8871 69.0028 78.1691 69.0028 74.9979C69.0028 71.8268 68.3232 69.1088 66.9642 66.8437C65.6051 64.5786 63.7931 62.8571 61.528 61.6793C59.3535 60.4109 56.9526 59.7766 54.3251 59.7766H38.832V90.0834Z" fill="#FF4F9A"/>
</g>
<defs>
<clipPath id="clip0_319_34743">
<rect width="180" height="180" fill="white"/>
</clipPath>
</defs>
</svg>
